<svg xmlns="http://www.w3.org/2000/svg" width="14" height="13" viewBox="0 0 14 13">
  <g id="half_star" data-name="half star" transform="translate(-179 -182)">
    <path id="Icon_ionic-ios-star" data-name="Icon ionic-ios-star" d="M14.469,6h-4.6l-1.4-4.169a.506.506,0,0,0-.95,0L6.128,6H1.5a.5.5,0,0,0-.5.5.367.367,0,0,0,.009.084.48.48,0,0,0,.209.353L5,9.6l-1.45,4.216a.5.5,0,0,0,.172.563A.484.484,0,0,0,4,14.5a.613.613,0,0,0,.313-.113L8,11.759l3.688,2.628A.586.586,0,0,0,12,14.5a.449.449,0,0,0,.278-.122.5.5,0,0,0,.172-.562L11,9.6l3.747-2.687.091-.078A.524.524,0,0,0,15,6.5.529.529,0,0,0,14.469,6Z" transform="translate(178 180.5)" fill="#dcdfe1"/>
    <path id="Subtraction_3" data-name="Subtraction 3" d="M-514-1761a.486.486,0,0,1-.282-.121.5.5,0,0,1-.172-.562L-513-1765.9l-3.778-2.662a.484.484,0,0,1-.21-.354A.363.363,0,0,1-517-1769a.5.5,0,0,1,.5-.5h4.628l1.4-4.169A.489.489,0,0,1-510-1774v10.259l-3.687,2.628A.616.616,0,0,1-514-1761Z" transform="translate(696 1956)" fill="#12c54b"/>
  </g>
</svg>
