<svg xmlns="http://www.w3.org/2000/svg" width="24.036" height="25.001" viewBox="0 0 24.036 25.001">
    <g>
        <g>
            <g>
                <path fill="#d4d5d6" stroke="#d4d5d6" d="M9.622 10.578a.894.894 0 1 1 1.766.282v.016a9.842 9.842 0 1 0 2.444-5L17.789 7.2a.894.894 0 0 1 .566 1.13.894.894 0 0 1-1.13.566l-5.365-1.79a.894.894 0 0 1-.611-.848V.894a.894.894 0 1 1 1.788 0V4.16a11.5 11.5 0 1 1-3.415 6.419z" transform="translate(-58.473 -658.318) translate(59 658.818) translate(-9.461)"/>
            </g>
        </g>
        <text fill="#d4d5d6" font-family="TTCommons-Regular, TT Commons" font-size="10px" transform="translate(-58.473 -658.318) translate(65.525 675)">
            <tspan x="0" y="0">10</tspan>
        </text>
    </g>
</svg>
